# xmcd CD database file
#
# Track frame offsets:
#	150
#	7082
#	19215
#	32935
#	50860
#	64570
#	83240
#	95727
#	105260
#	121907
#	136380
#	153240
#	168915
#	182105
#
# Disc length: 2967 seconds
#
# Revision: 0
# Processed by: cddbd v1.5.1PL2 Copyright (c) Steve Scherf et al.
# Submitted via: CDex 1.51
#
DISCID=b60b950e
DTITLE=ナイスマーブルス - さよなら少年
DYEAR=2000
DGENRE=DOMESTIC(J-POPS)
TTITLE0=まるぼろ
TTITLE1=チャリ
TTITLE2=グリコ
TTITLE3=四つ葉
TTITLE4=あめ
TTITLE5=ぐんないそーろん
TTITLE6=ゆきを
TTITLE7=カンコーヒー
TTITLE8=ポチ
TTITLE9=日曜日
TTITLE10=いー天気
TTITLE11=スプライト
TTITLE12=さよなら少年
TTITLE13=古時計
EXTD=YEAR: 2000
EXTT0=
EXTT1=
EXTT2=
EXTT3=
EXTT4=
EXTT5=
EXTT6=
EXTT7=
EXTT8=
EXTT9=
EXTT10=
EXTT11=
EXTT12=
EXTT13=
PLAYORDER=
